<svg width="70" height="70" viewBox="0 0 70 70" fill="none" xmlns="http://www.w3.org/2000/svg">
<rect width="70" height="70" fill="#12294D"/>
<path d="M43.625 23.5H26.375V32.125H43.625V23.5Z" stroke="white" stroke-width="2" stroke-linecap="round" stroke-linejoin="round"/>
<path d="M49.375 50.8125V19.1875C49.375 18.3936 48.7314 17.75 47.9375 17.75H22.0625C21.2686 17.75 20.625 18.3936 20.625 19.1875L20.625 50.8125C20.625 51.6064 21.2686 52.25 22.0625 52.25H47.9375C48.7314 52.25 49.375 51.6064 49.375 50.8125Z" stroke="white" stroke-width="2" stroke-linecap="round" stroke-linejoin="round"/>
<path d="M28.7812 40.5625C29.8858 40.5625 30.7812 39.6671 30.7812 38.5625C30.7812 37.4579 29.8858 36.5625 28.7812 36.5625C27.6767 36.5625 26.7812 37.4579 26.7812 38.5625C26.7812 39.6671 27.6767 40.5625 28.7812 40.5625Z" fill="white"/>
<path d="M28.7812 46.5C29.8858 46.5 30.7812 45.6046 30.7812 44.5C30.7812 43.3954 29.8858 42.5 28.7812 42.5C27.6767 42.5 26.7812 43.3954 26.7812 44.5C26.7812 45.6046 27.6767 46.5 28.7812 46.5Z" fill="white"/>
<path d="M35 40.5625C36.1046 40.5625 37 39.6671 37 38.5625C37 37.4579 36.1046 36.5625 35 36.5625C33.8954 36.5625 33 37.4579 33 38.5625C33 39.6671 33.8954 40.5625 35 40.5625Z" fill="white"/>
<path d="M35 46.5C36.1046 46.5 37 45.6046 37 44.5C37 43.3954 36.1046 42.5 35 42.5C33.8954 42.5 33 43.3954 33 44.5C33 45.6046 33.8954 46.5 35 46.5Z" fill="white"/>
<path d="M41.2188 40.5625C42.3233 40.5625 43.2188 39.6671 43.2188 38.5625C43.2188 37.4579 42.3233 36.5625 41.2188 36.5625C40.1142 36.5625 39.2188 37.4579 39.2188 38.5625C39.2188 39.6671 40.1142 40.5625 41.2188 40.5625Z" fill="white"/>
<path d="M41.2188 46.5C42.3233 46.5 43.2188 45.6046 43.2188 44.5C43.2188 43.3954 42.3233 42.5 41.2188 42.5C40.1142 42.5 39.2188 43.3954 39.2188 44.5C39.2188 45.6046 40.1142 46.5 41.2188 46.5Z" fill="white"/>
</svg>
