<svg width="144" height="144" viewBox="0 0 144 144" fill="none" xmlns="http://www.w3.org/2000/svg">
<path d="M69.588 132C32.4792 132 12.001 111.457 12.001 74.4131V69.587C12.001 32.5435 32.4792 12 69.588 12H74.414C111.523 12 132.001 32.4783 132.001 69.587V74.4131C132.001 111.522 111.523 132 74.414 132H69.588V132Z" fill="#C82832"/>
<path d="M37.827 61.3695C36.0661 60.2608 33.8487 59.6738 31.5009 59.6738C25.1096 59.6738 22.1748 62.413 22.1748 62.413V82.0434H25.827V64.4999C27.9792 62.9999 31.5009 63.1304 31.5009 63.1304C33.1966 63.1304 34.7618 63.5217 35.8052 64.239C36.1966 64.4999 37.1096 65.2173 37.1096 67.4347V82.1086H40.827V66.913C40.827 64.9564 39.7835 62.739 37.827 61.4347V61.3695ZM56.2183 72.5869C59.1531 72.1304 62.1531 70.1738 62.1531 66.326C62.1531 64.3695 60.9792 62.6086 59.1531 61.3695C57.3922 60.2608 55.1748 59.6738 52.827 59.6738C50.4792 59.6738 48.2618 60.2608 46.5661 61.3695C44.6096 62.6738 43.5009 64.826 43.5009 66.8477V75.7173C43.5009 77.6738 44.6748 79.6304 46.5661 80.8695C48.2618 81.9782 50.4792 82.5651 52.827 82.5651C55.1748 82.5651 57.2618 82.0434 59.1531 80.8695C61.24 79.5651 61.827 77.7391 62.2835 76.4347L58.5661 76.6304C58.5661 76.6304 58.1096 77.6086 57.1313 78.2608C56.0879 78.913 54.5226 79.3695 52.827 79.3695C51.1966 79.3695 49.5661 78.913 48.5226 78.2608C48.0661 77.8695 47.0879 77.413 47.2183 75.6521V73.4999C47.2183 73.4999 51.0661 73.3043 56.2183 72.5869V72.5869ZM47.2183 70.6956V67.1086C47.2183 64.8912 48.1966 64.1086 48.5879 63.8477C49.6966 63.1956 51.1966 62.739 52.8922 62.739C54.5879 62.739 56.9357 63.1956 58.1748 64.6956C58.3705 64.9564 59.2183 66.4564 58.3053 68.3477C57.7183 69.4564 55.6313 69.8477 55.6313 69.8477C51.8487 70.4999 47.2183 70.6956 47.2183 70.6956V70.6956Z" fill="white"/>
<path d="M74.2185 71.2827L82.0446 60.4566H77.6751L72.1968 68.087L66.7838 60.4566H62.349L70.1751 71.2827L62.1533 82.0436H66.5881L72.1968 74.2175L77.8707 82.0436H82.2403L74.2185 71.2827V71.2827ZM87.849 59.9348L84.7838 61.2392C84.7838 61.2392 84.1316 61.5001 84.1316 62.2175V82.1088H87.849V59.9348ZM101.088 61.2392H96.5881V55.3696L93.5881 56.674C93.5881 56.674 92.9359 57.0001 92.9359 57.7175V82.0436H96.5881V64.5001H101.153V61.2392H101.088ZM108.914 74.5435C108.914 74.5435 111.392 74.674 117.197 73.5001V76.8262C117.197 76.9566 117.327 78.2609 115.175 79.0436C114.392 79.3696 113.284 79.5653 111.784 79.5653C107.284 79.5653 105.262 78.2609 105.262 78.2609L103.501 80.674C103.697 80.8696 106.24 82.5653 111.784 82.5653C113.545 82.5653 115.175 82.3044 116.153 81.9131C118.501 81.0001 120.262 79.5653 120.327 76.6957V60.4566H117.197V70.6305C117.197 70.6305 113.61 71.6088 108.979 71.6088C108.066 71.6088 106.371 71.4131 106.11 69.9783V61.3044H102.979V69.9783C103.175 73.1088 105.914 74.5435 108.914 74.5435V74.5435Z" fill="white"/>
</svg>
