<?xml version="1.0" encoding="UTF-8"?>
<svg xmlns="http://www.w3.org/2000/svg" width="332" height="88" viewBox="0 0 332 88" fill="none">
  <path d="M150.83 0.222534H331.379L316.566 87.2225H136.018L150.83 0.222534Z" fill="#0C69BF"></path>
  <path d="M141.439 78.1345C138.04 78.1345 134.949 77.385 132.192 75.8859C129.476 74.3467 127.322 72.2587 125.729 69.6219C124.137 66.9852 123.348 64.0406 123.348 60.7747C123.348 57.5089 124.137 54.5776 125.729 51.9944C127.322 49.4112 129.476 47.3633 132.192 45.8642C134.909 44.325 138 43.5487 141.439 43.5487C144.878 43.5487 147.968 44.2982 150.685 45.7973C153.401 47.2964 155.555 49.3576 157.148 51.9944C158.74 54.5776 159.53 57.5089 159.53 60.7747C159.53 64.0406 158.74 66.9852 157.148 69.6219C155.555 72.2587 153.401 74.3333 150.685 75.8859C147.968 77.385 144.878 78.1345 141.439 78.1345ZM141.439 68.6716C142.937 68.6716 144.249 68.3504 145.386 67.7213C146.523 67.0387 147.38 66.1152 147.968 64.9373C148.597 63.7059 148.919 62.3273 148.919 60.7881C148.919 59.2489 148.597 57.9104 147.968 56.7727C147.34 55.5949 146.443 54.6847 145.319 54.0556C144.235 53.373 142.937 53.0384 141.439 53.0384C139.94 53.0384 138.696 53.373 137.558 54.0556C136.421 54.6847 135.538 55.5949 134.909 56.7727C134.28 57.9506 133.959 59.3158 133.959 60.855C133.959 62.3942 134.28 63.7193 134.909 64.9373C135.538 66.1152 136.434 67.0521 137.558 67.7213C138.696 68.3504 139.98 68.6716 141.439 68.6716Z" fill="#0C69BF"></path>
  <path d="M159.529 60.7746C159.529 64.0404 158.739 66.9984 157.147 69.6218C155.554 72.2586 153.4 74.3466 150.684 75.8858C147.967 77.3849 144.876 78.1344 141.438 78.1344C140.113 78.1344 138.842 78.0273 137.624 77.7864L139.23 68.3904C139.912 68.5778 140.648 68.6715 141.438 68.6715C142.923 68.6715 144.248 68.3503 145.372 67.7212C146.509 67.0386 147.379 66.1016 147.967 64.9238C148.596 63.7058 148.917 62.3138 148.917 60.7746C148.917 59.2353 148.596 57.8969 147.967 56.7592C147.325 55.5813 146.442 54.6712 145.305 54.0421C144.314 53.4264 143.164 53.0918 141.839 53.0383L143.431 43.6556C146.081 43.8832 148.503 44.6059 150.684 45.8106C153.4 47.3096 155.554 49.3709 157.147 51.9943C158.739 54.5909 159.529 57.5087 159.529 60.7746Z" fill="white"></path>
  <path d="M124.696 44.311V53.1582H117.216V77.3843H106.806V53.1582H96.2618V77.3843H85.8515V53.1582H78.3716V44.311H85.8515V30.6453H96.2618V44.311H106.806V30.6453H117.216V44.311H124.696Z" fill="#0C69BF"></path>
  <path d="M77.0341 51.526C75.6291 49.0365 73.6755 47.0823 71.1866 45.6769C68.6978 44.2716 65.8075 43.5756 62.5426 43.5756C59.2776 43.5756 56.1733 44.3117 53.4971 45.8108C50.8209 47.3099 48.6934 49.3711 47.101 52.0079C45.5622 54.5911 44.7861 57.5357 44.7861 60.8551C44.7861 64.1745 45.589 67.1325 47.1679 69.7693C48.7603 72.3926 50.9413 74.4673 53.6978 75.953C56.5212 77.4119 59.7058 78.1346 63.2919 78.1346C66.0617 78.1346 68.6041 77.6528 70.919 76.7025C73.2205 75.7522 75.2009 74.32 76.8334 72.4194L71.1197 66.7042C70.1162 67.8419 68.9654 68.6985 67.6541 69.2874C66.3294 69.8362 64.8575 70.1039 63.225 70.1039C61.4587 70.1039 59.9199 69.7425 58.5952 69.0197C57.3374 68.2434 56.3338 67.186 55.6113 65.8208C55.3838 65.3523 55.1965 64.8437 55.0359 64.3083L78.7334 64.2548C78.9208 63.3982 79.0278 62.6486 79.0813 62.0062C79.1616 61.3236 79.2152 60.6945 79.2152 60.1056C79.2152 56.8799 78.4926 54.029 77.0341 51.526ZM55.0493 57.161C55.1831 56.6791 55.3437 56.2374 55.5444 55.8225C56.2134 54.4573 57.1501 53.4133 58.3276 52.6905C59.5586 51.9142 60.977 51.526 62.6095 51.526C64.2419 51.526 65.4462 51.874 66.4899 52.5566C67.5738 53.1857 68.39 54.136 68.9386 55.4076C69.1661 55.9162 69.3534 56.4917 69.4872 57.1208L55.0493 57.161Z" fill="#0C69BF"></path>
  <path d="M41.7219 29.3478V77.3852H33.9074L11.4543 48.6082V77.3852H0.776367V29.3478H8.25628L31.0439 58.553V29.3478H41.7219Z" fill="#0C69BF"></path>
  <path d="M296.602 77.385H284.358L273.613 61.444V77.385H263.203V27.9824H273.613V59.1016L284.291 44.3116H295.933L283.836 59.9047L296.602 77.385Z" fill="white"></path>
  <path d="M263.512 46.5597L257.317 54.3897C256.875 53.8945 256.3 53.5063 255.617 53.2252C254.948 52.9575 254.172 52.8237 253.316 52.8237C251.59 52.8237 250.198 53.3725 249.154 54.4566C248.164 55.5006 247.669 57.08 247.669 59.2215V77.3845H237.259V44.3111H247.669V46.8408C249.703 44.6992 252.54 43.6418 256.166 43.6418C257.758 43.6418 259.137 43.8828 260.314 44.3914C261.545 44.8331 262.602 45.5692 263.512 46.5597Z" fill="white"></path>
  <path d="M222.794 44.3113V47.0686C221.898 46.1986 220.854 45.5026 219.676 44.927C217.897 44.0704 215.903 43.6421 213.682 43.6421C210.644 43.6421 207.928 44.3916 205.519 45.8773C203.164 47.3764 201.278 49.4242 199.873 52.0075C198.521 54.5907 197.839 57.5353 197.839 60.8547C197.839 64.1741 198.521 67.1187 199.873 69.7019C201.278 72.2852 203.164 74.3196 205.519 75.8187C207.928 77.3178 210.644 78.0673 213.682 78.0673C215.903 78.0673 217.924 77.639 219.743 76.769C220.908 76.2202 221.924 75.5242 222.794 74.7078V77.3847H233.004V44.3113H222.794ZM221.162 66.503C219.81 67.9485 218.017 68.6713 215.796 68.6713C214.391 68.6713 213.12 68.3367 211.982 67.6541C210.845 66.9715 209.962 66.0479 209.333 64.8701C208.691 63.6922 208.383 62.3538 208.383 60.8547C208.383 59.3556 208.691 57.9502 209.333 56.7724C210.015 55.5946 210.899 54.6844 211.982 54.0419C213.12 53.3727 214.404 53.0247 215.863 53.0247C217.321 53.0247 218.579 53.3727 219.676 54.0419C220.8 54.6844 221.67 55.5946 222.259 56.7724C222.888 57.9502 223.209 59.3155 223.209 60.8547C223.209 63.1167 222.527 65.0039 221.162 66.503Z" fill="white"></path>
  <path d="M196.66 36.4948C195.255 34.1793 193.328 32.4125 190.88 31.1811C188.431 29.9631 185.688 29.3474 182.65 29.3474H162.579V77.3848H173.27V59.9045H182.65C185.688 59.9045 188.431 59.2888 190.88 58.0574C193.328 56.7859 195.255 55.0191 196.66 52.7571C198.119 50.4416 198.841 47.7245 198.841 44.5925C198.841 41.4605 198.119 38.7568 196.66 36.4948ZM187.28 48.3937C186.638 49.4377 185.782 50.2408 184.698 50.7762C183.6 51.325 182.396 51.5926 181.085 51.5926H173.27V37.6459H181.085C182.396 37.6459 183.6 37.927 184.698 38.4623C185.782 39.0111 186.638 39.8008 187.28 40.8448C187.909 41.8888 188.23 43.1336 188.23 44.5925C188.23 46.0514 187.909 47.3631 187.28 48.3937Z" fill="white"></path>
</svg>
